<?xml version="1.0" encoding="UTF-8"?>
<!DOCTYPE svg PUBLIC "-//W3C//DTD SVG 1.1//EN" "http://www.w3.org/Graphics/SVG/1.1/DTD/svg11.dtd">
<svg xmlns="http://www.w3.org/2000/svg" version="1.1" width="674px" height="567px" style="shape-rendering:geometricPrecision; text-rendering:geometricPrecision; image-rendering:optimizeQuality; fill-rule:evenodd; clip-rule:evenodd" xmlns:xlink="http://www.w3.org/1999/xlink">
<g><path style="opacity:0.978" fill="#f1f1f1" d="M 261.5,-0.5 C 262.833,-0.5 264.167,-0.5 265.5,-0.5C 266.159,13.5938 266.492,27.7605 266.5,42C 266.651,56.5899 266.151,71.0899 265,85.5C 203.475,122.264 141.475,158.264 79,193.5C 78.228,193.355 77.5613,193.022 77,192.5C 76.8333,178.5 76.6667,164.5 76.5,150.5C 76.3488,135.744 76.8488,121.077 78,106.5C 139.076,70.5708 200.243,34.9042 261.5,-0.5 Z"/></g>
<g><path style="opacity:1" fill="#29d9bb" d="M 475.5,-0.5 C 477.167,-0.5 478.833,-0.5 480.5,-0.5C 481.373,3.76846 481.706,8.10179 481.5,12.5C 388.5,65.8333 295.5,119.167 202.5,172.5C 202.175,167.401 202.675,162.401 204,157.5C 205.41,156.213 206.91,155.046 208.5,154C 297.89,102.978 386.89,51.4784 475.5,-0.5 Z"/></g>
<g><path style="opacity:1" fill="#e4f3f0" d="M 471.5,6.5 C 473.252,6.41755 474.252,7.25089 474.5,9C 474.016,11.4747 472.683,13.3081 470.5,14.5C 469.119,14.0004 468.453,13.0004 468.5,11.5C 469.092,9.57749 470.092,7.91083 471.5,6.5 Z"/></g>
<g><path style="opacity:1" fill="#eaf3f1" d="M 459.5,13.5 C 463.164,14.8672 463.497,17.0338 460.5,20C 459.207,20.49 457.873,20.6567 456.5,20.5C 456.15,17.5466 457.15,15.2133 459.5,13.5 Z"/></g>
<g><path style="opacity:1" fill="#455a64" d="M 481.5,12.5 C 481.5,24.1667 481.5,35.8333 481.5,47.5C 474.833,51.8333 468.167,56.1667 461.5,60.5C 389.562,101.138 317.895,142.304 246.5,184C 237.876,190.41 234.042,198.91 235,209.5C 236.483,213.665 239.316,215.165 243.5,214C 316.687,172.912 389.354,131.078 461.5,88.5C 468.209,85.1456 474.875,81.8123 481.5,78.5C 481.5,89.8333 481.5,101.167 481.5,112.5C 479.599,114.796 477.266,116.629 474.5,118C 408.5,156 342.5,194 276.5,232C 274.951,233.214 273.785,234.714 273,236.5C 272.333,259.167 272.333,281.833 273,304.5C 274.388,305.554 275.888,305.72 277.5,305C 345.392,265.557 413.392,226.39 481.5,187.5C 481.5,194.167 481.5,200.833 481.5,207.5C 414.054,247.731 346.054,287.231 277.5,326C 276,327.5 274.5,329 273,330.5C 272.5,339.827 272.334,349.161 272.5,358.5C 250.319,371.424 227.986,384.091 205.5,396.5C 204.584,396.457 203.917,396.124 203.5,395.5C 203.5,362.833 203.5,330.167 203.5,297.5C 203.831,273.994 203.498,250.661 202.5,227.5C 202.5,209.167 202.5,190.833 202.5,172.5C 295.5,119.167 388.5,65.8333 481.5,12.5 Z"/></g>
<g><path style="opacity:1" fill="#e9f3f1" d="M 447.5,20.5 C 451.164,21.8672 451.497,24.0338 448.5,27C 447.207,27.49 445.873,27.6567 444.5,27.5C 444.15,24.5466 445.15,22.2133 447.5,20.5 Z"/></g>
<g><path style="opacity:0.985" fill="#2cdcbe" d="M 481.5,47.5 C 492.115,46.3515 495.949,51.0181 493,61.5C 490.865,68.4417 487.032,74.1084 481.5,78.5C 474.875,81.8123 468.209,85.1456 461.5,88.5C 461.5,79.1667 461.5,69.8333 461.5,60.5C 468.167,56.1667 474.833,51.8333 481.5,47.5 Z"/></g>
<g><path style="opacity:1" fill="#f3f3f3" d="M 461.5,60.5 C 461.5,69.8333 461.5,79.1667 461.5,88.5C 389.354,131.078 316.687,172.912 243.5,214C 239.316,215.165 236.483,213.665 235,209.5C 234.042,198.91 237.876,190.41 246.5,184C 317.895,142.304 389.562,101.138 461.5,60.5 Z"/></g>
<g><path style="opacity:1" fill="#eefcf9" d="M 476.5,55.5 C 482.997,55.1799 485.164,58.1799 483,64.5C 481.141,70.9968 476.975,73.8301 470.5,73C 467.585,65.5795 469.585,59.7462 476.5,55.5 Z"/></g>
<g><path style="opacity:1" fill="#39dfc2" d="M 476.5,57.5 C 481.213,57.4676 482.713,59.8009 481,64.5C 479.668,69.5175 476.501,71.6841 471.5,71C 470.424,69.2739 470.257,67.4406 471,65.5C 472.273,62.4027 474.107,59.7361 476.5,57.5 Z"/></g>
<g><path style="opacity:1" fill="#f8f9f9" d="M 148.5,116.5 C 144.702,113.204 141.036,109.704 137.5,106C 136.167,105.333 134.833,105.333 133.5,106C 128.232,117.369 122.565,128.536 116.5,139.5C 113.206,136.845 109.539,135.345 105.5,135C 98.6961,146.112 92.0294,157.278 85.5,168.5C 84.1667,156.5 84.1667,144.5 85.5,132.5C 97.2085,130.282 103.542,123.115 104.5,111C 104.894,107.832 103.894,105.332 101.5,103.5C 114.964,95.8645 128.298,88.0312 141.5,80C 143.365,78.6986 145.365,78.3653 147.5,79C 148.489,91.42 148.822,103.92 148.5,116.5 Z"/></g>
<g><path style="opacity:1" fill="#35dfc1" d="M 101.5,103.5 C 103.894,105.332 104.894,107.832 104.5,111C 103.542,123.115 97.2085,130.282 85.5,132.5C 84.0431,126.137 84.2098,119.803 86,113.5C 90.7698,109.533 95.9365,106.2 101.5,103.5 Z"/></g>
<g><path style="opacity:1" fill="#2fdec0" d="M 148.5,116.5 C 148.666,123.841 148.5,131.174 148,138.5C 147.208,140.587 146.041,142.421 144.5,144C 126.003,154.414 107.669,165.081 89.5,176C 84.6325,175.711 83.2991,173.211 85.5,168.5C 92.0294,157.278 98.6961,146.112 105.5,135C 109.539,135.345 113.206,136.845 116.5,139.5C 122.565,128.536 128.232,117.369 133.5,106C 134.833,105.333 136.167,105.333 137.5,106C 141.036,109.704 144.702,113.204 148.5,116.5 Z"/></g>
<g><path style="opacity:1" fill="#55e4cc" d="M 481.5,112.5 C 483.467,112.261 485.301,112.594 487,113.5C 487.667,136.167 487.667,158.833 487,181.5C 485.669,183.996 483.836,185.996 481.5,187.5C 413.392,226.39 345.392,265.557 277.5,305C 275.888,305.72 274.388,305.554 273,304.5C 272.333,281.833 272.333,259.167 273,236.5C 273.785,234.714 274.951,233.214 276.5,232C 342.5,194 408.5,156 474.5,118C 477.266,116.629 479.599,114.796 481.5,112.5 Z"/></g>
<g><path style="opacity:1" fill="#fafefd" d="M 464.5,148.5 C 465.5,148.5 466.5,148.5 467.5,148.5C 467.801,153.048 465.801,156.215 461.5,158C 425.003,178.747 388.67,199.747 352.5,221C 351.207,221.49 349.873,221.657 348.5,221.5C 347.959,218.348 348.959,215.848 351.5,214C 389.335,192.303 427.002,170.47 464.5,148.5 Z"/></g>
<g><path style="opacity:0.992" fill="#eff0f0" d="M 202.5,227.5 C 203.498,250.661 203.831,273.994 203.5,297.5C 199.527,283.057 192.527,270.224 182.5,259C 176.609,254.259 169.942,252.592 162.5,254C 158.199,255.966 155.866,259.299 155.5,264C 156.477,269.751 158.144,275.251 160.5,280.5C 156.881,283.65 152.881,286.316 148.5,288.5C 143.263,285.205 137.596,283.705 131.5,284C 130.919,284.893 130.585,285.893 130.5,287C 131.367,289.896 132.367,292.729 133.5,295.5C 133.063,297.074 132.063,298.241 130.5,299C 99.9413,316.777 69.2747,334.277 38.5,351.5C 38.5,336.5 38.5,321.5 38.5,306.5C 38.0208,283.409 38.5208,260.409 40,237.5C 86.7785,209.568 133.945,182.234 181.5,155.5C 182.478,155.977 183.311,156.643 184,157.5C 184.5,182.164 184.667,206.831 184.5,231.5C 190.504,230.166 196.504,228.832 202.5,227.5 Z"/></g>
<g><path style="opacity:1" fill="#f9fefd" d="M 463.5,163.5 C 464.833,163.5 466.167,163.5 467.5,163.5C 468.041,166.652 467.041,169.152 464.5,171C 427.337,192.081 390.337,213.414 353.5,235C 351.975,236.009 350.308,236.509 348.5,236.5C 347.822,232.727 349.156,229.894 352.5,228C 389.891,206.978 426.891,185.478 463.5,163.5 Z"/></g>
<g><path style="opacity:1" fill="#f8fefd" d="M 389.5,177.5 C 391.252,177.418 392.252,178.251 392.5,180C 392.01,181.982 391.01,183.649 389.5,185C 376.057,193.052 362.39,200.552 348.5,207.5C 348.22,204.728 348.887,202.228 350.5,200C 363.563,192.473 376.563,184.973 389.5,177.5 Z"/></g>
<g><path style="opacity:1" fill="#f9fefd" d="M 464.5,177.5 C 465.5,177.5 466.5,177.5 467.5,177.5C 468.174,181.317 466.841,184.15 463.5,186C 426.337,207.081 389.337,228.414 352.5,250C 351.207,250.49 349.873,250.657 348.5,250.5C 348.253,247.495 349.253,244.995 351.5,243C 389.557,221.645 427.224,199.812 464.5,177.5 Z"/></g>
<g><path style="opacity:1" fill="#fcfefe" d="M 335.5,241.5 C 332.188,238.854 329.188,235.854 326.5,232.5C 325.277,231.386 323.944,231.219 322.5,232C 317.433,241.3 312.767,250.8 308.5,260.5C 308,260.833 307.5,261.167 307,261.5C 304.61,260.722 302.443,259.555 300.5,258C 299.5,257.333 298.5,257.333 297.5,258C 291.11,267.947 285.11,278.114 279.5,288.5C 278.167,277.167 278.167,265.833 279.5,254.5C 284.563,255.228 288.73,253.228 292,248.5C 294.494,244.681 295.994,240.515 296.5,236C 296.607,233.779 295.94,231.946 294.5,230.5C 306.61,221.947 319.443,214.281 333,207.5C 333.772,207.645 334.439,207.978 335,208.5C 335.5,219.495 335.667,230.495 335.5,241.5 Z"/></g>
<g><path style="opacity:1" fill="#56e4cc" d="M 487.5,231.5 C 487.667,246.17 487.5,260.837 487,275.5C 484.561,279.775 481.061,282.775 476.5,284.5C 474.123,282.97 474.123,281.47 476.5,280C 472.847,279.17 469.847,277.337 467.5,274.5C 466.084,272.149 464.417,272.149 462.5,274.5C 456.223,275.62 449.89,276.62 443.5,277.5C 450.77,273.193 458.103,268.86 465.5,264.5C 467.171,262.49 467.838,260.157 467.5,257.5C 452.219,264.806 437.552,273.139 423.5,282.5C 419.247,281.807 415.581,282.807 412.5,285.5C 410.694,284.976 409.028,284.309 407.5,283.5C 427.717,272.475 447.55,260.809 467,248.5C 467.494,246.866 467.66,245.199 467.5,243.5C 466.127,243.343 464.793,243.51 463.5,244C 441.939,256.274 420.606,268.774 399.5,281.5C 396.574,280.539 393.574,279.873 390.5,279.5C 390.5,279.167 390.5,278.833 390.5,278.5C 393.27,276.112 393.103,274.112 390,272.5C 387.406,273.285 385.239,274.618 383.5,276.5C 380.188,276.149 377.855,277.482 376.5,280.5C 368.221,284.975 359.887,289.475 351.5,294C 349.253,295.995 348.253,298.495 348.5,301.5C 350.655,301.628 352.655,301.128 354.5,300C 361.528,295.822 368.528,291.655 375.5,287.5C 376.559,289.555 378.225,290.889 380.5,291.5C 371.394,297.226 362.061,302.726 352.5,308C 349.156,309.894 347.822,312.727 348.5,316.5C 363.282,309.276 377.616,301.276 391.5,292.5C 395.179,292.724 398.846,293.058 402.5,293.5C 385.394,303.892 368.061,314.059 350.5,324C 348.984,325.897 348.317,328.064 348.5,330.5C 351.425,330.54 354.091,329.707 356.5,328C 373.726,317.89 391.059,308.056 408.5,298.5C 408.095,301.715 407.095,304.715 405.5,307.5C 386.147,317.594 367.314,328.594 349,340.5C 348.506,342.134 348.34,343.801 348.5,345.5C 351.691,344.908 354.691,343.741 357.5,342C 372.725,332.89 388.058,324.057 403.5,315.5C 402.291,320.221 400.957,324.887 399.5,329.5C 357.795,352.77 316.295,376.437 275,400.5C 274.228,400.355 273.561,400.022 273,399.5C 272.5,385.837 272.333,372.171 272.5,358.5C 272.334,349.161 272.5,339.827 273,330.5C 274.5,329 276,327.5 277.5,326C 346.054,287.231 414.054,247.731 481.5,207.5C 483.679,205.836 485.512,206.17 487,208.5C 487.5,216.159 487.666,223.826 487.5,231.5 Z"/></g>
<g><path style="opacity:1" fill="#2edec0" d="M 294.5,230.5 C 295.94,231.946 296.607,233.779 296.5,236C 295.994,240.515 294.494,244.681 292,248.5C 288.73,253.228 284.563,255.228 279.5,254.5C 279.334,249.489 279.501,244.489 280,239.5C 283.975,235.097 288.809,232.097 294.5,230.5 Z"/></g>
<g><path style="opacity:1" fill="#2adebf" d="M 335.5,241.5 C 335.666,247.509 335.499,253.509 335,259.5C 334.55,261.519 333.717,263.352 332.5,265C 315.058,275.384 297.392,285.217 279.5,294.5C 279.5,292.5 279.5,290.5 279.5,288.5C 285.11,278.114 291.11,267.947 297.5,258C 298.5,257.333 299.5,257.333 300.5,258C 302.443,259.555 304.61,260.722 307,261.5C 307.5,261.167 308,260.833 308.5,260.5C 312.767,250.8 317.433,241.3 322.5,232C 323.944,231.219 325.277,231.386 326.5,232.5C 329.188,235.854 332.188,238.854 335.5,241.5 Z"/></g>
<g><path style="opacity:0.996" fill="#f9f9f9" d="M 487.5,231.5 C 535.761,243.134 579.761,263.634 619.5,293C 640.228,309.386 656.061,329.553 667,353.5C 669.821,361.459 671.987,369.459 673.5,377.5C 673.5,385.833 673.5,394.167 673.5,402.5C 665.643,437.354 647.31,465.52 618.5,487C 583.181,513.158 544.181,532.158 501.5,544C 451.934,557.628 401.6,565.128 350.5,566.5C 340.833,566.5 331.167,566.5 321.5,566.5C 258.81,565.23 197.81,554.063 138.5,533C 97.4904,518.43 61.6571,495.93 31,465.5C 14.6151,447.397 4.11506,426.397 -0.5,402.5C -0.5,393.5 -0.5,384.5 -0.5,375.5C 5.28205,348.393 18.282,325.393 38.5,306.5C 38.5,321.5 38.5,336.5 38.5,351.5C 38.3359,354.187 38.5026,356.854 39,359.5C 40.0495,360.517 41.2161,360.684 42.5,360C 74.7263,341.726 106.726,323.226 138.5,304.5C 142.934,310.513 147.268,316.679 151.5,323C 141.205,324.941 138.871,330.275 144.5,339C 148.122,341.644 152.122,343.477 156.5,344.5C 152.65,349.182 152.817,353.848 157,358.5C 159.869,361.704 163.035,364.537 166.5,367C 176.327,372.08 185.994,377.413 195.5,383C 198.067,385.396 200.4,387.896 202.5,390.5C 202.216,392.415 202.549,394.081 203.5,395.5C 203.917,396.124 204.584,396.457 205.5,396.5C 227.986,384.091 250.319,371.424 272.5,358.5C 272.333,372.171 272.5,385.837 273,399.5C 273.561,400.022 274.228,400.355 275,400.5C 316.295,376.437 357.795,352.77 399.5,329.5C 399.337,331.857 399.503,334.19 400,336.5C 400.75,337.126 401.584,337.626 402.5,338C 408.825,338.5 415.158,338.666 421.5,338.5C 422.267,339.172 422.934,340.005 423.5,341C 428.823,341.499 434.156,341.666 439.5,341.5C 438.576,351.461 438.242,361.461 438.5,371.5C 436.567,408.654 435.234,445.987 434.5,483.5C 422.951,484.347 412.951,488.68 404.5,496.5C 400.518,502.191 400.685,507.857 405,513.5C 415.073,521.446 426.573,525.946 439.5,527C 453.913,527.976 467.913,525.976 481.5,521C 488.081,518.802 492.915,514.636 496,508.5C 497.325,499.163 493.491,492.83 484.5,489.5C 484.667,471.164 484.5,452.83 484,434.5C 483.399,431.363 482.399,428.363 481,425.5C 480.833,422.5 480.667,419.5 480.5,416.5C 481.747,405.526 482.747,394.526 483.5,383.5C 483.498,379.982 483.165,376.649 482.5,373.5C 482.067,357.5 481.567,341.5 481,325.5C 478.168,318.5 473.001,315.833 465.5,317.5C 465.5,315.833 465.5,314.167 465.5,312.5C 473.452,305 477.118,295.666 476.5,284.5C 481.061,282.775 484.561,279.775 487,275.5C 487.5,260.837 487.667,246.17 487.5,231.5 Z"/></g>
<g><path style="opacity:1" fill="#edefef" d="M 111.5,233.5 C 114.518,233.335 117.518,233.502 120.5,234C 122.815,235.109 124.315,236.943 125,239.5C 125.667,243.167 125.667,246.833 125,250.5C 123.638,256.215 121.471,261.549 118.5,266.5C 114.694,270.905 110.027,274.072 104.5,276C 96.2272,276.898 92.2272,273.065 92.5,264.5C 93.3014,257.764 95.3014,251.43 98.5,245.5C 102.222,240.811 106.555,236.811 111.5,233.5 Z"/></g>
<g><path style="opacity:1" fill="#75e4d0" d="M 118.5,266.5 C 121.471,261.549 123.638,256.215 125,250.5C 125.667,246.833 125.667,243.167 125,239.5C 124.315,236.943 122.815,235.109 120.5,234C 117.518,233.502 114.518,233.335 111.5,233.5C 119.253,229.621 124.42,231.954 127,240.5C 127.849,250.461 125.016,259.128 118.5,266.5 Z"/></g>
<g><path style="opacity:1" fill="#61e2ca" d="M 111.5,233.5 C 106.555,236.811 102.222,240.811 98.5,245.5C 100.916,239.453 105.249,235.453 111.5,233.5 Z"/></g>
<g><path style="opacity:1" fill="#f9fdfc" d="M 407.5,283.5 C 404.782,282.957 402.115,282.291 399.5,281.5C 420.606,268.774 441.939,256.274 463.5,244C 464.793,243.51 466.127,243.343 467.5,243.5C 467.66,245.199 467.494,246.866 467,248.5C 447.55,260.809 427.717,272.475 407.5,283.5 Z"/></g>
<g><path style="opacity:1" fill="#3bdfc2" d="M 103.5,247.5 C 109.206,247.171 114.872,247.505 120.5,248.5C 114.842,255.491 108.842,262.157 102.5,268.5C 100.955,261.321 101.288,254.321 103.5,247.5 Z"/></g>
<g><path style="opacity:1" fill="#25bb89" d="M 203.5,297.5 C 203.5,330.167 203.5,362.833 203.5,395.5C 202.549,394.081 202.216,392.415 202.5,390.5C 202.5,387.833 202.5,385.167 202.5,382.5C 202.5,380.5 202.5,378.5 202.5,376.5C 202.667,365.162 202.5,353.828 202,342.5C 201.209,341.255 200.709,339.922 200.5,338.5C 199.511,313.033 192.011,289.7 178,268.5C 174.869,264.367 171.369,260.534 167.5,257C 166.668,256.312 166.002,256.479 165.5,257.5C 185.434,279.613 196.434,305.613 198.5,335.5C 195.248,333.134 191.581,331.634 187.5,331C 191.008,323.083 189.675,316.083 183.5,310C 181.527,309.505 179.527,309.338 177.5,309.5C 173.988,302.466 169.988,295.799 165.5,289.5C 164.057,286.272 162.39,283.272 160.5,280.5C 158.144,275.251 156.477,269.751 155.5,264C 155.866,259.299 158.199,255.966 162.5,254C 169.942,252.592 176.609,254.259 182.5,259C 192.527,270.224 199.527,283.057 203.5,297.5 Z"/></g>
<g><path style="opacity:1" fill="#f7fcfb" d="M 443.5,277.5 C 442.508,277.328 441.842,277.662 441.5,278.5C 437.861,280.655 434.194,282.822 430.5,285C 429.62,286.356 429.286,287.856 429.5,289.5C 427.901,289.768 426.568,289.434 425.5,288.5C 426.5,288.5 427.5,288.5 428.5,288.5C 428.251,285.256 426.584,283.256 423.5,282.5C 437.552,273.139 452.219,264.806 467.5,257.5C 467.838,260.157 467.171,262.49 465.5,264.5C 458.103,268.86 450.77,273.193 443.5,277.5 Z"/></g>
<g><path style="opacity:1" fill="#60e2ca" d="M 98.5,245.5 C 95.3014,251.43 93.3014,257.764 92.5,264.5C 92.2272,273.065 96.2272,276.898 104.5,276C 110.027,274.072 114.694,270.905 118.5,266.5C 113.956,274.772 106.956,278.272 97.5,277C 94.6193,275.749 92.786,273.583 92,270.5C 90.2818,261.035 92.4485,252.701 98.5,245.5 Z"/></g>
<g><path style="opacity:1" fill="#f2faf9" d="M 390.5,278.5 C 387.933,278.279 385.599,277.612 383.5,276.5C 385.239,274.618 387.406,273.285 390,272.5C 393.103,274.112 393.27,276.112 390.5,278.5 Z"/></g>
<g><path style="opacity:1" fill="#e0e4e8" d="M 467.5,274.5 C 465.833,274.5 464.167,274.5 462.5,274.5C 464.417,272.149 466.084,272.149 467.5,274.5 Z"/></g>
<g><path style="opacity:1" fill="#eaf8f3" d="M 200.5,338.5 C 199.094,338.027 198.427,337.027 198.5,335.5C 196.434,305.613 185.434,279.613 165.5,257.5C 166.002,256.479 166.668,256.312 167.5,257C 171.369,260.534 174.869,264.367 178,268.5C 192.011,289.7 199.511,313.033 200.5,338.5 Z"/></g>
<g><path style="opacity:1" fill="#343758" d="M 462.5,274.5 C 464.167,274.5 465.833,274.5 467.5,274.5C 469.847,277.337 472.847,279.17 476.5,280C 474.123,281.47 474.123,282.97 476.5,284.5C 477.118,295.666 473.452,305 465.5,312.5C 457.147,313.805 453.48,310.471 454.5,302.5C 458.055,300.924 459.222,298.257 458,294.5C 454.857,292.828 452.357,293.494 450.5,296.5C 447.507,295.167 445.173,293.167 443.5,290.5C 443.598,288.447 442.931,286.78 441.5,285.5C 441.5,283.167 441.5,280.833 441.5,278.5C 441.842,277.662 442.508,277.328 443.5,277.5C 449.89,276.62 456.223,275.62 462.5,274.5 Z"/></g>
<g><path style="opacity:1" fill="#495e67" d="M 383.5,276.5 C 385.599,277.612 387.933,278.279 390.5,278.5C 390.5,278.833 390.5,279.167 390.5,279.5C 386.83,282.171 385.663,285.838 387,290.5C 388.622,291.099 390.122,291.766 391.5,292.5C 387.846,292.058 384.179,291.724 380.5,291.5C 378.225,290.889 376.559,289.555 375.5,287.5C 375.448,285.097 375.781,282.764 376.5,280.5C 377.855,277.482 380.188,276.149 383.5,276.5 Z"/></g>
<g><path style="opacity:1" fill="#28353b" d="M 390.5,279.5 C 393.574,279.873 396.574,280.539 399.5,281.5C 402.115,282.291 404.782,282.957 407.5,283.5C 409.028,284.309 410.694,284.976 412.5,285.5C 411.248,288.163 410.248,290.83 409.5,293.5C 407.167,293.5 404.833,293.5 402.5,293.5C 398.846,293.058 395.179,292.724 391.5,292.5C 390.122,291.766 388.622,291.099 387,290.5C 385.663,285.838 386.83,282.171 390.5,279.5 Z"/></g>
<g><path style="opacity:1" fill="#58dfc8" d="M 441.5,278.5 C 441.5,280.833 441.5,283.167 441.5,285.5C 439.206,287.653 436.54,289.32 433.5,290.5C 431.901,290.768 430.568,290.434 429.5,289.5C 429.286,287.856 429.62,286.356 430.5,285C 434.194,282.822 437.861,280.655 441.5,278.5 Z"/></g>
<g><path style="opacity:1" fill="#f9fefd" d="M 376.5,280.5 C 375.781,282.764 375.448,285.097 375.5,287.5C 368.528,291.655 361.528,295.822 354.5,300C 352.655,301.128 350.655,301.628 348.5,301.5C 348.253,298.495 349.253,295.995 351.5,294C 359.887,289.475 368.221,284.975 376.5,280.5 Z"/></g>
<g><path style="opacity:1" fill="#31debf" d="M 160.5,280.5 C 162.39,283.272 164.057,286.272 165.5,289.5C 162.304,290.929 159.304,292.595 156.5,294.5C 153.527,292.853 150.86,290.853 148.5,288.5C 152.881,286.316 156.881,283.65 160.5,280.5 Z"/></g>
<g><path style="opacity:1" fill="#fca8a7" d="M 423.5,282.5 C 426.584,283.256 428.251,285.256 428.5,288.5C 427.5,288.5 426.5,288.5 425.5,288.5C 422.633,289.768 421.966,291.768 423.5,294.5C 424.949,295.172 426.282,295.839 427.5,296.5C 424.904,297.757 422.237,298.924 419.5,300C 417.253,301.995 416.253,304.495 416.5,307.5C 415.949,310.807 415.616,314.14 415.5,317.5C 414.532,319.607 414.198,321.941 414.5,324.5C 417.5,324.5 420.5,324.5 423.5,324.5C 421.784,328.972 421.118,333.638 421.5,338.5C 415.158,338.666 408.825,338.5 402.5,338C 401.584,337.626 400.75,337.126 400,336.5C 399.503,334.19 399.337,331.857 399.5,329.5C 400.957,324.887 402.291,320.221 403.5,315.5C 403.963,312.779 404.629,310.112 405.5,307.5C 407.095,304.715 408.095,301.715 408.5,298.5C 409.451,297.081 409.784,295.415 409.5,293.5C 410.248,290.83 411.248,288.163 412.5,285.5C 415.581,282.807 419.247,281.807 423.5,282.5 Z"/></g>
<g><path style="opacity:1" fill="#37e2aa" d="M 148.5,288.5 C 150.86,290.853 153.527,292.853 156.5,294.5C 162.635,299.803 168.302,305.636 173.5,312C 175.412,312.279 176.746,311.446 177.5,309.5C 179.527,309.338 181.527,309.505 183.5,310C 189.675,316.083 191.008,323.083 187.5,331C 191.581,331.634 195.248,333.134 198.5,335.5C 198.427,337.027 199.094,338.027 200.5,338.5C 200.709,339.922 201.209,341.255 202,342.5C 202.5,353.828 202.667,365.162 202.5,376.5C 188.162,341.825 166.829,312.158 138.5,287.5C 138.167,287.833 137.833,288.167 137.5,288.5C 166.3,314.956 187.967,346.289 202.5,382.5C 202.5,385.167 202.5,387.833 202.5,390.5C 200.4,387.896 198.067,385.396 195.5,383C 185.994,377.413 176.327,372.08 166.5,367C 163.035,364.537 159.869,361.704 157,358.5C 152.817,353.848 152.65,349.182 156.5,344.5C 152.122,343.477 148.122,341.644 144.5,339C 138.871,330.275 141.205,324.941 151.5,323C 147.268,316.679 142.934,310.513 138.5,304.5C 137.083,301.331 135.417,298.331 133.5,295.5C 132.367,292.729 131.367,289.896 130.5,287C 130.585,285.893 130.919,284.893 131.5,284C 137.596,283.705 143.263,285.205 148.5,288.5 Z"/></g>
<g><path style="opacity:1" fill="#e8ebeb" d="M 441.5,285.5 C 442.931,286.78 443.598,288.447 443.5,290.5C 443.737,291.791 443.404,292.791 442.5,293.5C 439.341,292.669 436.341,291.669 433.5,290.5C 436.54,289.32 439.206,287.653 441.5,285.5 Z"/></g>
<g><path style="opacity:1" fill="#2d373d" d="M 425.5,288.5 C 426.568,289.434 427.901,289.768 429.5,289.5C 430.568,290.434 431.901,290.768 433.5,290.5C 436.341,291.669 439.341,292.669 442.5,293.5C 442.443,294.609 442.11,295.609 441.5,296.5C 439.5,296.5 437.5,296.5 435.5,296.5C 432.833,296.5 430.167,296.5 427.5,296.5C 426.282,295.839 424.949,295.172 423.5,294.5C 421.966,291.768 422.633,289.768 425.5,288.5 Z"/></g>
<g><path style="opacity:1" fill="#f4f8f7" d="M 165.5,289.5 C 169.988,295.799 173.988,302.466 177.5,309.5C 176.746,311.446 175.412,312.279 173.5,312C 168.302,305.636 162.635,299.803 156.5,294.5C 159.304,292.595 162.304,290.929 165.5,289.5 Z"/></g>
<g><path style="opacity:1" fill="#f9fefd" d="M 380.5,291.5 C 384.179,291.724 387.846,292.058 391.5,292.5C 377.616,301.276 363.282,309.276 348.5,316.5C 347.822,312.727 349.156,309.894 352.5,308C 362.061,302.726 371.394,297.226 380.5,291.5 Z"/></g>
<g><path style="opacity:1" fill="#faa6a6" d="M 443.5,290.5 C 445.173,293.167 447.507,295.167 450.5,296.5C 452.357,293.494 454.857,292.828 458,294.5C 459.222,298.257 458.055,300.924 454.5,302.5C 453.48,310.471 457.147,313.805 465.5,312.5C 465.5,314.167 465.5,315.833 465.5,317.5C 461.468,318.285 457.468,319.285 453.5,320.5C 452.735,317.904 452.401,315.237 452.5,312.5C 449.813,312.664 447.146,312.497 444.5,312C 443.28,307.987 441.946,304.153 440.5,300.5C 440.062,300.565 439.728,300.399 439.5,300C 440.305,298.887 440.972,297.721 441.5,296.5C 442.11,295.609 442.443,294.609 442.5,293.5C 443.404,292.791 443.737,291.791 443.5,290.5 Z"/></g>
<g><path style="opacity:1" fill="#f9fdfc" d="M 402.5,293.5 C 404.833,293.5 407.167,293.5 409.5,293.5C 409.784,295.415 409.451,297.081 408.5,298.5C 391.059,308.056 373.726,317.89 356.5,328C 354.091,329.707 351.425,330.54 348.5,330.5C 348.317,328.064 348.984,325.897 350.5,324C 368.061,314.059 385.394,303.892 402.5,293.5 Z"/></g>
<g><path style="opacity:1" fill="#faf9f8" d="M 427.5,296.5 C 430.167,296.5 432.833,296.5 435.5,296.5C 429.366,300.404 423.032,304.071 416.5,307.5C 416.253,304.495 417.253,301.995 419.5,300C 422.237,298.924 424.904,297.757 427.5,296.5 Z"/></g>
<g><path style="opacity:1" fill="#33dec0" d="M 133.5,295.5 C 135.417,298.331 137.083,301.331 138.5,304.5C 106.726,323.226 74.7263,341.726 42.5,360C 41.2161,360.684 40.0495,360.517 39,359.5C 38.5026,356.854 38.3359,354.187 38.5,351.5C 69.2747,334.277 99.9413,316.777 130.5,299C 132.063,298.241 133.063,297.074 133.5,295.5 Z"/></g>
<g><path style="opacity:1" fill="#58e4cc" d="M 435.5,296.5 C 437.5,296.5 439.5,296.5 441.5,296.5C 440.972,297.721 440.305,298.887 439.5,300C 439.728,300.399 440.062,300.565 440.5,300.5C 441.666,302.166 441.666,303.833 440.5,305.5C 432.205,309.967 424.038,314.633 416,319.5C 415.536,318.906 415.369,318.239 415.5,317.5C 415.616,314.14 415.949,310.807 416.5,307.5C 423.032,304.071 429.366,300.404 435.5,296.5 Z"/></g>
<g><path style="opacity:1" fill="#fcfefe" d="M 335.5,336.5 C 332.398,332.896 329.065,329.396 325.5,326C 324.365,325.251 323.365,325.417 322.5,326.5C 317.484,336.531 312.484,346.531 307.5,356.5C 304.613,354.889 301.613,353.556 298.5,352.5C 297.833,352.833 297.167,353.167 296.5,353.5C 290.303,363.23 284.637,373.23 279.5,383.5C 278.167,372.167 278.167,360.833 279.5,349.5C 284.874,350.063 289.041,348.063 292,343.5C 296.546,337.521 297.38,331.188 294.5,324.5C 305.662,317.53 316.996,310.697 328.5,304C 330.365,302.699 332.365,302.365 334.5,303C 335.487,314.085 335.821,325.252 335.5,336.5 Z"/></g>
<g><path style="opacity:1" fill="#f7f5f5" d="M 440.5,300.5 C 441.946,304.153 443.28,307.987 444.5,312C 447.146,312.497 449.813,312.664 452.5,312.5C 452.401,315.237 452.735,317.904 453.5,320.5C 443.53,321.938 433.53,323.272 423.5,324.5C 420.5,324.5 417.5,324.5 414.5,324.5C 414.198,321.941 414.532,319.607 415.5,317.5C 415.369,318.239 415.536,318.906 416,319.5C 424.038,314.633 432.205,309.967 440.5,305.5C 441.666,303.833 441.666,302.166 440.5,300.5 Z"/></g>
<g><path style="opacity:1" fill="#f9fefd" d="M 405.5,307.5 C 404.629,310.112 403.963,312.779 403.5,315.5C 388.058,324.057 372.725,332.89 357.5,342C 354.691,343.741 351.691,344.908 348.5,345.5C 348.34,343.801 348.506,342.134 349,340.5C 367.314,328.594 386.147,317.594 405.5,307.5 Z"/></g>
<g><path style="opacity:1" fill="#edfcf7" d="M 202.5,376.5 C 202.5,378.5 202.5,380.5 202.5,382.5C 187.967,346.289 166.3,314.956 137.5,288.5C 137.833,288.167 138.167,287.833 138.5,287.5C 166.829,312.158 188.162,341.825 202.5,376.5 Z"/></g>
<g><path style="opacity:1" fill="#06368d" d="M 465.5,317.5 C 473.001,315.833 478.168,318.5 481,325.5C 481.567,341.5 482.067,357.5 482.5,373.5C 470.136,384.671 456.136,387.171 440.5,381C 438.66,378.174 437.994,375.007 438.5,371.5C 438.242,361.461 438.576,351.461 439.5,341.5C 434.156,341.666 428.823,341.499 423.5,341C 422.934,340.005 422.267,339.172 421.5,338.5C 421.118,333.638 421.784,328.972 423.5,324.5C 433.53,323.272 443.53,321.938 453.5,320.5C 457.468,319.285 461.468,318.285 465.5,317.5 Z"/></g>
<g><path style="opacity:1" fill="#2edec0" d="M 294.5,324.5 C 297.38,331.188 296.546,337.521 292,343.5C 289.041,348.063 284.874,350.063 279.5,349.5C 279.096,343.71 279.596,338.044 281,332.5C 285.126,329.209 289.626,326.542 294.5,324.5 Z"/></g>
<g><path style="opacity:1" fill="#2bdebf" d="M 335.5,336.5 C 335.666,342.509 335.499,348.509 335,354.5C 334.64,356.421 333.806,358.088 332.5,359.5C 315.5,369.5 298.5,379.5 281.5,389.5C 279.717,387.977 279.051,385.977 279.5,383.5C 284.637,373.23 290.303,363.23 296.5,353.5C 297.167,353.167 297.833,352.833 298.5,352.5C 301.613,353.556 304.613,354.889 307.5,356.5C 312.484,346.531 317.484,336.531 322.5,326.5C 323.365,325.417 324.365,325.251 325.5,326C 329.065,329.396 332.398,332.896 335.5,336.5 Z"/></g>
<g><path style="opacity:1" fill="#2b2e49" d="M 438.5,371.5 C 437.994,375.007 438.66,378.174 440.5,381C 456.136,387.171 470.136,384.671 482.5,373.5C 483.165,376.649 483.498,379.982 483.5,383.5C 482.747,394.526 481.747,405.526 480.5,416.5C 480.667,419.5 480.833,422.5 481,425.5C 482.399,428.363 483.399,431.363 484,434.5C 484.5,452.83 484.667,471.164 484.5,489.5C 484.5,489.833 484.5,490.167 484.5,490.5C 481.57,491.299 478.57,491.632 475.5,491.5C 474.833,491.5 474.5,491.167 474.5,490.5C 474.802,487.941 474.468,485.607 473.5,483.5C 469.989,466.119 466.155,448.786 462,431.5C 461.502,428.518 461.335,425.518 461.5,422.5C 462.06,414.029 464.394,406.029 468.5,398.5C 472.909,395.633 476.909,392.299 480.5,388.5C 480.333,388.167 480.167,387.833 480,387.5C 476.364,391.487 472.03,394.487 467,396.5C 464.826,402.844 462.659,409.178 460.5,415.5C 455.697,426.295 454.197,437.629 456,449.5C 453.052,460.41 450.552,471.41 448.5,482.5C 446.5,489.167 444.5,495.833 442.5,502.5C 439.43,502.632 436.43,502.299 433.5,501.5C 434.241,495.529 434.575,489.529 434.5,483.5C 435.234,445.987 436.567,408.654 438.5,371.5 Z"/></g>
<g><path style="opacity:1" fill="#28323c" d="M 461.5,422.5 C 460.532,420.393 460.198,418.059 460.5,415.5C 462.659,409.178 464.826,402.844 467,396.5C 472.03,394.487 476.364,391.487 480,387.5C 480.167,387.833 480.333,388.167 480.5,388.5C 476.909,392.299 472.909,395.633 468.5,398.5C 464.394,406.029 462.06,414.029 461.5,422.5 Z"/></g>
<g><path style="opacity:1" fill="#f2f3f4" d="M 460.5,415.5 C 460.198,418.059 460.532,420.393 461.5,422.5C 461.335,425.518 461.502,428.518 462,431.5C 466.155,448.786 469.989,466.119 473.5,483.5C 472.903,484.139 472.07,484.472 471,484.5C 463.574,482.993 456.074,482.326 448.5,482.5C 450.552,471.41 453.052,460.41 456,449.5C 454.197,437.629 455.697,426.295 460.5,415.5 Z"/></g>
<g><path style="opacity:1" fill="#aad3fa" d="M 448.5,482.5 C 456.074,482.326 463.574,482.993 471,484.5C 472.07,484.472 472.903,484.139 473.5,483.5C 474.468,485.607 474.802,487.941 474.5,490.5C 468.932,489.878 463.432,488.878 458,487.5C 455.401,487.053 453.901,488.053 453.5,490.5C 454.318,493.295 455.985,495.462 458.5,497C 464.56,498.864 470.226,501.53 475.5,505C 485.129,506.562 488.129,503.062 484.5,494.5C 484.5,493.167 484.5,491.833 484.5,490.5C 484.5,490.167 484.5,489.833 484.5,489.5C 493.491,492.83 497.325,499.163 496,508.5C 492.915,514.636 488.081,518.802 481.5,521C 467.913,525.976 453.913,527.976 439.5,527C 426.573,525.946 415.073,521.446 405,513.5C 400.685,507.857 400.518,502.191 404.5,496.5C 412.951,488.68 422.951,484.347 434.5,483.5C 434.575,489.529 434.241,495.529 433.5,501.5C 433.5,501.833 433.5,502.167 433.5,502.5C 425.822,502.152 418.155,501.985 410.5,502C 408.979,506.618 410.646,509.618 415.5,511C 420.768,511.867 425.768,513.534 430.5,516C 433.5,516.667 436.5,516.667 439.5,516C 443.348,513.782 444.348,510.615 442.5,506.5C 442.5,505.167 442.5,503.833 442.5,502.5C 444.5,495.833 446.5,489.167 448.5,482.5 Z"/></g>
<g><path style="opacity:1" fill="#2a363c" d="M 474.5,490.5 C 474.5,491.167 474.833,491.5 475.5,491.5C 475.58,497.022 478.247,498.856 483.5,497C 484.252,496.329 484.586,495.496 484.5,494.5C 488.129,503.062 485.129,506.562 475.5,505C 470.226,501.53 464.56,498.864 458.5,497C 455.985,495.462 454.318,493.295 453.5,490.5C 453.901,488.053 455.401,487.053 458,487.5C 463.432,488.878 468.932,489.878 474.5,490.5 Z"/></g>
<g><path style="opacity:1" fill="#e98a8b" d="M 484.5,490.5 C 484.5,491.833 484.5,493.167 484.5,494.5C 484.586,495.496 484.252,496.329 483.5,497C 478.247,498.856 475.58,497.022 475.5,491.5C 478.57,491.632 481.57,491.299 484.5,490.5 Z"/></g>
<g><path style="opacity:1" fill="#29353c" d="M 433.5,502.5 C 432.753,508.067 435.087,509.9 440.5,508C 441.044,507.283 441.711,506.783 442.5,506.5C 444.348,510.615 443.348,513.782 439.5,516C 436.5,516.667 433.5,516.667 430.5,516C 425.768,513.534 420.768,511.867 415.5,511C 410.646,509.618 408.979,506.618 410.5,502C 418.155,501.985 425.822,502.152 433.5,502.5 Z"/></g>
<g><path style="opacity:1" fill="#e98b8b" d="M 433.5,501.5 C 436.43,502.299 439.43,502.632 442.5,502.5C 442.5,503.833 442.5,505.167 442.5,506.5C 441.711,506.783 441.044,507.283 440.5,508C 435.087,509.9 432.753,508.067 433.5,502.5C 433.5,502.167 433.5,501.833 433.5,501.5 Z"/></g>
</svg>
